<svg xmlns="http://www.w3.org/2000/svg" width="500.000013" height="500.000013" viewBox="0 0 132.29167 132.29167">
  <defs>
    <linearGradient id="a">
      <stop offset="0" stop-color="#fff"/>
    </linearGradient>
  </defs>
  <path d="M-50.527347-27.492556a66.145796 66.145796 0 0 0-66.146023 66.146 66.145796 66.145796 0 0 0 66.146023 66.145666 66.145796 66.145796 0 0 0 66.145646-66.145666 66.145796 66.145796 0 0 0-66.145646-66.146zm0 8.72754c13.5661 0 26.043266 4.72782 35.878046 12.61904-.0872.0274-.174.0556-.2602.0862-2.8979 1.0327-5.48828 1.94248-7.87112 2.73264-7.948766-5.2577-17.483146-8.31916-27.746686-8.31916-27.82182 0-50.299343 22.47752-50.299343 50.29936 0 27.821803 22.477523 50.299363 50.299343 50.299363 27.821806 0 50.299386-22.47756 50.299386-50.299363 0-10.27254-3.06686-19.8148-8.33314-27.76778.79788-2.36778 1.71138-4.9438 2.74698-7.84966.031-.0872.057-.1746.0842-.26218 7.8921 9.835 12.62062 22.31314 12.62062 35.87998 0 31.669063-25.74904 57.418103-57.418066 57.418103-31.6691 0-57.418103-25.74904-57.418103-57.418103 0-31.66906 25.749003-57.41806 57.418103-57.41806zm38.052606 15.85226c.962.012 1.8779.41394 2.5392 1.11274.92058.97256 1.2175 2.37952.76824 3.64112-5.90748 16.57658-8.3422 24.16696-5.07726 38.44266 3.72726 16.29684-6.83792 33.321903-23.289526 38.470503-11.16864 3.49524-22.5177.54772-29.79292-6.92764-5.7122-2.50632-13.37562-10.792263-16.37348-16.373423-7.4754-7.27524-10.42288-18.62424-6.9276-29.79296 5.1486-16.45154 22.17402-27.01678 38.47082-23.28956 14.27572 3.26496 21.865766.83024 38.442286-5.07726.39788-.1418.81784-.21168 1.24024-.20618zm-6.8804 10.39402c-4.2273 1.70518-9.77034 4.00194-15.691786 6.64282-12.29914 5.4853-26.17334 12.75662-30.5779 17.1612-4.9879 4.9879-8.0292 10.89116-8.96948 16.12278-.71082 3.95488-.27454 7.38682 1.19808 10.04444.63288.69086 1.30068 1.3932 1.98862 2.0812.68816.68816 1.39056 1.35598 2.08162 1.98906 2.65746 1.47226 6.08912 1.908423 10.04366 1.19768 5.23164-.94026 11.13564-3.98164 16.12358-8.9695 4.40456-4.40456 11.67546-18.27836 17.160806-30.57754 2.64086-5.92138 4.93772-11.46478 6.6428-15.69214zm-39.563666 1.28192c-10.75842.1278-21.41976 7.85168-24.9159 19.02312-2.19504 7.01398-1.16224 13.78072 2.13478 18.9516.031-.1964.0636-.39278.0988-.58914 1.2405-6.902 5.00898-13.96374 10.94266-19.89744 5.34904-5.34902 15.52066-10.70438 25.91738-15.54002-2.83914-.21482-5.80512-.66992-9.00368-1.40148-1.53926-.352-3.10022-.52992-4.66174-.54664-.1708-.004-.34164-.004-.5124 0zm36.334006 24.10356c-4.83568 10.39684-10.191326 20.56906-15.540406 25.91816-5.93366 5.933683-12.99582 9.701303-19.89788 10.941843-.1964.0352-.39268.0678-.5891.0988 5.171 3.29744 11.93772 4.33038 18.952 2.13522 12.970066-4.059 21.292826-17.776003 18.476506-30.090043-.73162-3.19878-1.1863-6.16478-1.40112-9.00408z" style="isolation:auto;mix-blend-mode:normal" color="#000" overflow="visible" fill="url(#a)" transform="translate(116.67337 27.492556)"/>
</svg>
